<svg xmlns="http://www.w3.org/2000/svg" viewBox="0 0 502.60311 502.60311"><defs><style>.cls-1,.cls-2{fill:none;stroke:#fff;stroke-miterlimit:10;}.cls-1{stroke-width:3px;}.cls-2{stroke-width:2px;}</style></defs><g id="Layer_2" data-name="Layer 2"><g id="Layer_1-2" data-name="Layer 1"><polygon class="cls-1" points="74.753 74.753 1.624 251.302 74.753 427.851 251.302 500.98 427.851 427.851 500.98 251.302 427.851 74.753 251.302 1.624 74.753 74.753"/></g><g id="Layer_1_copy_2" data-name="Layer 1 copy 2"><line class="cls-2" x1="178.17253" y1="178.1726" x2="178.17259" y2="178.1726"/><line class="cls-2" x1="147.88151" y1="251.30151" x2="147.88157" y2="251.30157"/><line class="cls-2" x1="178.17259" y1="178.1726" x2="178.17259" y2="178.17254"/><line class="cls-2" x1="178.17259" y1="178.1726" x2="251.30155" y2="251.30151"/><line class="cls-2" x1="251.30155" y1="251.30151" x2="251.30155" y2="147.88158"/><line class="cls-2" x1="178.17259" y1="178.1726" x2="251.30155" y2="147.88158"/><line class="cls-2" x1="251.30155" y1="354.72155" x2="251.30155" y2="251.30157"/><line class="cls-2" x1="147.88157" y1="251.30157" x2="147.88151" y2="251.30157"/><line class="cls-2" x1="251.30162" y1="251.30157" x2="324.43052" y2="324.43053"/><line class="cls-2" x1="354.7216" y1="251.30157" x2="354.72154" y2="251.30157"/><line class="cls-2" x1="324.43052" y1="324.43053" x2="354.72154" y2="251.30157"/><line class="cls-2" x1="251.30155" y1="354.72155" x2="324.43052" y2="324.43053"/><line class="cls-2" x1="251.30155" y1="354.72155" x2="178.17259" y2="324.43053"/><line class="cls-2" x1="251.30149" y1="251.30157" x2="251.30155" y2="251.30151"/><line class="cls-2" x1="251.30149" y1="251.30157" x2="251.30155" y2="251.30157"/><line class="cls-2" x1="251.30155" y1="251.30151" x2="324.43052" y2="178.1726"/><line class="cls-2" x1="354.7216" y1="251.30151" x2="354.72154" y2="251.30157"/><line class="cls-2" x1="324.43058" y1="178.1726" x2="354.7216" y2="251.30151"/><line class="cls-2" x1="251.30162" y1="251.30157" x2="354.72154" y2="251.30157"/><line class="cls-2" x1="324.43058" y1="178.1726" x2="324.43052" y2="178.1726"/><line class="cls-2" x1="324.43052" y1="178.1726" x2="251.30155" y2="147.88158"/><line class="cls-2" x1="324.43052" y1="178.17254" x2="324.43052" y2="178.1726"/><line class="cls-2" x1="251.30149" y1="251.30157" x2="147.88157" y2="251.30157"/><line class="cls-2" x1="251.30149" y1="251.30157" x2="178.17259" y2="324.43053"/><line class="cls-2" x1="147.88157" y1="251.30157" x2="178.17259" y2="324.43053"/><line class="cls-2" x1="251.30155" y1="251.30157" x2="251.30162" y2="251.30157"/><line class="cls-2" x1="251.30155" y1="251.30157" x2="251.30155" y2="251.30151"/><line class="cls-2" x1="251.30162" y1="251.30157" x2="251.30155" y2="251.30151"/><line class="cls-2" x1="178.17253" y1="178.1726" x2="147.88151" y2="251.30151"/><line class="cls-2" x1="178.17259" y1="324.43053" x2="178.17253" y2="324.43053"/><line class="cls-2" x1="178.17259" y1="324.43053" x2="199.59153" y2="376.1405"/><line class="cls-2" x1="147.88151" y1="397.5595" x2="126.46257" y2="376.1405"/><line class="cls-2" x1="147.88151" y1="251.30151" x2="147.88151" y2="251.30157"/><line class="cls-2" x1="126.46257" y1="199.59154" x2="147.88151" y2="251.30151"/><line class="cls-2" x1="74.75254" y1="251.30157" x2="74.75254" y2="221.01055"/><line class="cls-2" x1="251.30155" y1="354.72155" x2="199.59153" y2="376.1405"/><line class="cls-2" x1="251.30155" y1="427.85052" x2="221.01054" y2="427.85052"/><line class="cls-2" x1="74.75254" y1="427.85052" x2="126.46257" y2="376.1405"/><line class="cls-2" x1="178.17253" y1="324.43053" x2="126.46257" y2="303.01153"/><line class="cls-2" x1="126.46257" y1="376.1405" x2="178.17253" y2="324.43053"/><line class="cls-2" x1="126.46257" y1="376.1405" x2="105.04356" y2="354.72155"/><line class="cls-2" x1="1.62358" y1="251.30157" x2="74.75254" y2="427.85052"/><line class="cls-2" x1="1.62358" y1="251.30157" x2="74.75254" y2="324.43053"/><line class="cls-2" x1="74.75254" y1="427.85052" x2="105.04356" y2="354.72155"/><line class="cls-2" x1="74.75254" y1="427.85052" x2="74.75254" y2="324.43053"/><line class="cls-2" x1="105.04356" y1="354.72155" x2="126.46257" y2="303.01153"/><line class="cls-2" x1="74.75254" y1="324.43053" x2="74.75254" y2="281.59258"/><line class="cls-2" x1="105.04356" y1="354.72155" x2="74.75254" y2="324.43053"/><line class="cls-2" x1="1.62358" y1="251.30157" x2="74.75254" y2="251.30157"/><line class="cls-2" x1="1.62358" y1="251.30157" x2="74.75254" y2="281.59258"/><line class="cls-2" x1="126.46257" y1="303.01153" x2="147.88151" y2="251.30157"/><line class="cls-2" x1="74.75254" y1="251.30157" x2="147.88151" y2="251.30157"/><line class="cls-2" x1="74.75254" y1="281.59258" x2="126.46257" y2="303.01153"/><line class="cls-2" x1="74.75254" y1="281.59258" x2="74.75254" y2="251.30157"/><line class="cls-2" x1="376.14054" y1="303.01153" x2="354.7216" y2="251.30157"/><line class="cls-2" x1="427.85057" y1="251.30157" x2="427.85057" y2="281.59258"/><line class="cls-2" x1="427.85057" y1="427.85052" x2="500.97953" y2="251.30157"/><line class="cls-2" x1="500.97953" y1="251.30157" x2="427.85057" y2="281.59258"/><line class="cls-2" x1="500.97953" y1="251.30157" x2="427.85057" y2="324.43053"/><line class="cls-2" x1="427.85057" y1="427.85052" x2="427.85057" y2="324.43053"/><line class="cls-2" x1="427.85057" y1="281.59258" x2="376.14054" y2="303.01153"/><line class="cls-2" x1="427.85057" y1="324.43053" x2="427.85057" y2="281.59258"/><line class="cls-2" x1="397.55955" y1="354.72155" x2="427.85057" y2="324.43053"/><line class="cls-2" x1="251.30155" y1="500.97948" x2="251.30155" y2="427.85052"/><line class="cls-2" x1="251.30155" y1="354.72155" x2="303.01158" y2="376.1405"/><line class="cls-2" x1="251.30155" y1="354.72155" x2="251.30155" y2="427.85052"/><line class="cls-2" x1="281.59257" y1="427.85052" x2="251.30155" y2="427.85052"/><line class="cls-2" x1="427.85057" y1="427.85052" x2="397.55955" y2="354.72155"/><line class="cls-2" x1="324.43058" y1="324.43053" x2="376.14054" y2="303.01153"/><line class="cls-2" x1="397.55955" y1="354.72155" x2="376.14054" y2="303.01153"/><line class="cls-2" x1="397.55955" y1="354.72155" x2="376.14054" y2="376.1405"/><line class="cls-2" x1="427.85057" y1="427.85052" x2="376.14054" y2="376.1405"/><line class="cls-2" x1="324.43052" y1="324.43053" x2="324.43058" y2="324.43053"/><line class="cls-2" x1="303.01158" y1="376.1405" x2="324.43052" y2="324.43053"/><line class="cls-2" x1="376.14054" y1="376.1405" x2="324.43058" y2="324.43053"/><line class="cls-2" x1="376.14054" y1="376.1405" x2="354.7216" y2="397.5595"/><line class="cls-2" x1="427.85057" y1="427.85052" x2="251.30155" y2="500.97948"/><line class="cls-2" x1="251.30155" y1="500.97948" x2="281.59257" y2="427.85052"/><line class="cls-2" x1="324.43052" y1="427.85052" x2="251.30155" y2="500.97948"/><line class="cls-2" x1="427.85057" y1="427.85052" x2="354.7216" y2="397.5595"/><line class="cls-2" x1="427.85057" y1="427.85052" x2="324.43052" y2="427.85052"/><line class="cls-2" x1="281.59257" y1="427.85052" x2="303.01158" y2="376.1405"/><line class="cls-2" x1="354.7216" y1="397.5595" x2="303.01158" y2="376.1405"/><line class="cls-2" x1="324.43052" y1="427.85052" x2="281.59257" y2="427.85052"/><line class="cls-2" x1="354.7216" y1="397.5595" x2="324.43052" y2="427.85052"/><line class="cls-2" x1="74.75254" y1="427.85052" x2="251.30155" y2="500.97948"/><line class="cls-2" x1="251.30155" y1="500.97948" x2="221.01054" y2="427.85052"/><line class="cls-2" x1="251.30155" y1="500.97948" x2="178.17259" y2="427.85052"/><line class="cls-2" x1="74.75254" y1="427.85052" x2="147.88151" y2="397.5595"/><line class="cls-2" x1="74.75254" y1="427.85052" x2="178.17259" y2="427.85052"/><line class="cls-2" x1="147.88151" y1="397.5595" x2="199.59153" y2="376.1405"/><line class="cls-2" x1="199.59153" y1="376.1405" x2="221.01054" y2="427.85052"/><line class="cls-2" x1="178.17259" y1="427.85052" x2="221.01054" y2="427.85052"/><line class="cls-2" x1="178.17259" y1="427.85052" x2="147.88151" y2="397.5595"/><line class="cls-2" x1="376.14054" y1="199.59154" x2="324.43058" y2="178.1726"/><line class="cls-2" x1="324.43052" y1="178.17254" x2="324.43058" y2="178.1726"/><line class="cls-2" x1="376.14054" y1="126.46258" x2="397.55955" y2="147.88158"/><line class="cls-2" x1="427.85057" y1="74.75256" x2="376.14054" y2="126.46258"/><line class="cls-2" x1="303.01158" y1="126.46258" x2="324.43052" y2="178.17254"/><line class="cls-2" x1="376.14054" y1="126.46258" x2="324.43052" y2="178.17254"/><line class="cls-2" x1="354.72154" y1="105.04357" x2="376.14054" y2="126.46258"/><line class="cls-2" x1="427.85057" y1="74.75256" x2="500.97953" y2="251.30157"/><line class="cls-2" x1="500.97953" y1="251.30157" x2="427.85057" y2="178.1726"/><line class="cls-2" x1="427.85057" y1="74.75256" x2="397.55955" y2="147.88158"/><line class="cls-2" x1="427.85057" y1="74.75256" x2="427.85057" y2="178.1726"/><line class="cls-2" x1="397.55955" y1="147.88158" x2="376.14054" y2="199.59154"/><line class="cls-2" x1="427.85057" y1="178.1726" x2="427.85057" y2="221.01055"/><line class="cls-2" x1="397.55955" y1="147.88158" x2="427.85057" y2="178.1726"/><line class="cls-2" x1="74.75254" y1="74.75256" x2="1.62358" y2="251.30157"/><line class="cls-2" x1="1.62358" y1="251.30157" x2="74.75254" y2="221.01055"/><line class="cls-2" x1="1.62358" y1="251.30157" x2="74.75254" y2="178.1726"/><line class="cls-2" x1="74.75254" y1="74.75256" x2="74.75254" y2="178.1726"/><line class="cls-2" x1="126.46257" y1="199.59154" x2="74.75254" y2="221.01055"/><line class="cls-2" x1="74.75254" y1="178.1726" x2="74.75254" y2="221.01055"/><line class="cls-2" x1="105.04356" y1="147.88158" x2="74.75254" y2="178.1726"/><line class="cls-2" x1="500.97953" y1="251.30157" x2="427.85057" y2="251.30157"/><line class="cls-2" x1="500.97953" y1="251.30157" x2="427.85057" y2="221.01055"/><line class="cls-2" x1="354.7216" y1="251.30151" x2="354.7216" y2="251.30157"/><line class="cls-2" x1="376.14054" y1="199.59154" x2="354.7216" y2="251.30151"/><line class="cls-2" x1="427.85057" y1="251.30157" x2="354.7216" y2="251.30157"/><line class="cls-2" x1="376.14054" y1="199.59154" x2="427.85057" y2="221.01055"/><line class="cls-2" x1="427.85057" y1="251.30157" x2="427.85057" y2="221.01055"/><line class="cls-2" x1="427.85057" y1="74.75256" x2="251.30155" y2="1.62359"/><line class="cls-2" x1="251.30155" y1="1.62359" x2="324.43052" y2="74.75256"/><line class="cls-2" x1="427.85057" y1="74.75256" x2="354.72154" y2="105.04357"/><line class="cls-2" x1="427.85057" y1="74.75256" x2="324.43052" y2="74.75256"/><line class="cls-2" x1="354.72154" y1="105.04357" x2="303.01158" y2="126.46258"/><line class="cls-2" x1="324.43052" y1="74.75256" x2="281.59257" y2="74.75256"/><line class="cls-2" x1="324.43052" y1="74.75256" x2="354.72154" y2="105.04357"/><line class="cls-2" x1="74.75254" y1="74.75256" x2="105.04356" y2="147.88158"/><line class="cls-2" x1="178.17253" y1="178.1726" x2="178.17259" y2="178.17254"/><line class="cls-2" x1="178.17253" y1="178.1726" x2="126.46257" y2="199.59154"/><line class="cls-2" x1="105.04356" y1="147.88158" x2="126.46257" y2="199.59154"/><line class="cls-2" x1="105.04356" y1="147.88158" x2="126.46257" y2="126.46258"/><line class="cls-2" x1="74.75254" y1="74.75256" x2="126.46257" y2="126.46258"/><line class="cls-2" x1="178.17259" y1="178.17254" x2="199.59153" y2="126.46258"/><line class="cls-2" x1="126.46257" y1="126.46258" x2="178.17259" y2="178.17254"/><line class="cls-2" x1="126.46257" y1="126.46258" x2="147.88157" y2="105.04357"/><line class="cls-2" x1="74.75254" y1="74.75256" x2="251.30155" y2="1.62359"/><line class="cls-2" x1="178.17259" y1="74.75256" x2="251.30155" y2="1.62359"/><line class="cls-2" x1="74.75254" y1="74.75256" x2="147.88157" y2="105.04357"/><line class="cls-2" x1="74.75254" y1="74.75256" x2="178.17259" y2="74.75256"/><line class="cls-2" x1="147.88157" y1="105.04357" x2="199.59153" y2="126.46258"/><line class="cls-2" x1="178.17259" y1="74.75256" x2="221.01054" y2="74.75256"/><line class="cls-2" x1="147.88157" y1="105.04357" x2="178.17259" y2="74.75256"/><line class="cls-2" x1="251.30155" y1="1.62359" x2="281.59257" y2="74.75256"/><line class="cls-2" x1="303.01158" y1="126.46258" x2="251.30155" y2="147.88158"/><line class="cls-2" x1="281.59257" y1="74.75256" x2="303.01158" y2="126.46258"/><line class="cls-2" x1="281.59257" y1="74.75256" x2="251.30155" y2="74.75256"/><line class="cls-2" x1="251.30155" y1="1.62359" x2="221.01054" y2="74.75256"/><line class="cls-2" x1="251.30155" y1="1.62359" x2="251.30155" y2="74.75256"/><line class="cls-2" x1="199.59153" y1="126.46258" x2="251.30155" y2="147.88158"/><line class="cls-2" x1="199.59153" y1="126.46258" x2="221.01054" y2="74.75256"/><line class="cls-2" x1="251.30155" y1="74.75256" x2="251.30155" y2="147.88158"/><line class="cls-2" x1="221.01054" y1="74.75256" x2="251.30155" y2="74.75256"/></g></g></svg>